<mxfile host="app.diagrams.net" modified="2024-06-11T11:35:23.395Z" agent="Mozilla/5.0 (X11; Linux x86_64) AppleWebKit/537.36 (KHTML, like Gecko) Chrome/125.0.0.0 Safari/537.36" etag="r2W-tPA9cJoB6hTPyH-X" version="22.1.21" type="github">
  <diagram name="Page-1" id="-T9wGAfd3PNgwBkE4I_I">
    <mxGraphModel dx="1362" dy="793" grid="1" gridSize="10" guides="1" tooltips="1" connect="1" arrows="1" fold="1" page="1" pageScale="1" pageWidth="850" pageHeight="1100" math="0" shadow="0">
      <root>
        <mxCell id="0" />
        <mxCell id="1" parent="0" />
        <mxCell id="ACUANvK1jdX-mK0Kz7Ea-1" value="&lt;font style=&quot;font-size: 14px;&quot;&gt;&lt;b&gt;User-Input&lt;/b&gt;&lt;/font&gt;" style="ellipse;whiteSpace=wrap;html=1;aspect=fixed;fillColor=#dae8fc;strokeColor=#6c8ebf;" vertex="1" parent="1">
          <mxGeometry x="53" y="280" width="126" height="126" as="geometry" />
        </mxCell>
        <mxCell id="ACUANvK1jdX-mK0Kz7Ea-2" value="&lt;font style=&quot;font-size: 15px;&quot;&gt;&lt;b style=&quot;font-size: 14px;&quot;&gt;Kernel&lt;br&gt;Instrumentation&lt;/b&gt;&lt;/font&gt;" style="ellipse;whiteSpace=wrap;html=1;aspect=fixed;fillColor=#dae8fc;strokeColor=#6c8ebf;" vertex="1" parent="1">
          <mxGeometry x="240" y="283" width="120" height="120" as="geometry" />
        </mxCell>
        <mxCell id="ACUANvK1jdX-mK0Kz7Ea-3" value="&lt;b&gt;&lt;font style=&quot;font-size: 14px;&quot;&gt;Statistically Sound measurements&lt;/font&gt;&lt;/b&gt;" style="ellipse;whiteSpace=wrap;html=1;aspect=fixed;fillColor=#dae8fc;strokeColor=#6c8ebf;" vertex="1" parent="1">
          <mxGeometry x="420" y="280" width="120" height="120" as="geometry" />
        </mxCell>
        <mxCell id="ACUANvK1jdX-mK0Kz7Ea-4" value="&lt;b&gt;&lt;font style=&quot;font-size: 14px;&quot;&gt;Per SCOP Data Generation&lt;/font&gt;&lt;/b&gt;" style="ellipse;whiteSpace=wrap;html=1;aspect=fixed;fillColor=#dae8fc;strokeColor=#6c8ebf;" vertex="1" parent="1">
          <mxGeometry x="597" y="280" width="120" height="120" as="geometry" />
        </mxCell>
        <mxCell id="ACUANvK1jdX-mK0Kz7Ea-5" value="" style="endArrow=classic;html=1;rounded=0;" edge="1" parent="1">
          <mxGeometry width="50" height="50" relative="1" as="geometry">
            <mxPoint x="179" y="345" as="sourcePoint" />
            <mxPoint x="240" y="345" as="targetPoint" />
          </mxGeometry>
        </mxCell>
        <mxCell id="ACUANvK1jdX-mK0Kz7Ea-26" value="" style="edgeStyle=orthogonalEdgeStyle;rounded=0;orthogonalLoop=1;jettySize=auto;html=1;strokeColor=#FF0000;" edge="1" parent="1" source="ACUANvK1jdX-mK0Kz7Ea-9" target="ACUANvK1jdX-mK0Kz7Ea-1">
          <mxGeometry relative="1" as="geometry" />
        </mxCell>
        <mxCell id="ACUANvK1jdX-mK0Kz7Ea-9" value="&lt;ul style=&quot;font-size: 14px;&quot;&gt;&lt;li&gt;PAPI Events&lt;/li&gt;&lt;li&gt;Dataset size&lt;/li&gt;&lt;li&gt;Power-Constraints&lt;/li&gt;&lt;li&gt;Micro-arcitecture&lt;/li&gt;&lt;/ul&gt;" style="shape=note;whiteSpace=wrap;html=1;backgroundOutline=1;darkOpacity=0.05;size=16;fillColor=#d5e8d4;strokeColor=#82b366;align=left;" vertex="1" parent="1">
          <mxGeometry x="41" y="432" width="169" height="130" as="geometry" />
        </mxCell>
        <mxCell id="ACUANvK1jdX-mK0Kz7Ea-18" value="" style="edgeStyle=orthogonalEdgeStyle;rounded=0;orthogonalLoop=1;jettySize=auto;html=1;strokeColor=#FF0000;" edge="1" parent="1" source="ACUANvK1jdX-mK0Kz7Ea-10" target="ACUANvK1jdX-mK0Kz7Ea-2">
          <mxGeometry relative="1" as="geometry" />
        </mxCell>
        <mxCell id="ACUANvK1jdX-mK0Kz7Ea-10" value="&lt;div style=&quot;font-size: 14px;&quot;&gt;&lt;font style=&quot;font-size: 14px;&quot;&gt;&lt;br&gt;&lt;/font&gt;&lt;/div&gt;&lt;ul style=&quot;font-size: 14px;&quot;&gt;&lt;li style=&quot;&quot;&gt;&lt;span style=&quot;background-color: initial;&quot;&gt;&lt;font style=&quot;font-size: 14px;&quot;&gt;Memory Fencing&lt;/font&gt;&lt;/span&gt;&lt;/li&gt;&lt;li style=&quot;&quot;&gt;&lt;font style=&quot;font-size: 14px;&quot;&gt;&lt;span style=&quot;background-color: initial;&quot;&gt;Rdmsr calls&lt;/span&gt;&lt;br&gt;&lt;/font&gt;&lt;/li&gt;&lt;li style=&quot;&quot;&gt;&lt;font style=&quot;font-size: 14px;&quot;&gt;Precise C-Timers&lt;/font&gt;&lt;/li&gt;&lt;li style=&quot;&quot;&gt;&lt;font style=&quot;font-size: 14px;&quot;&gt;Cache-flush&lt;/font&gt;&lt;/li&gt;&lt;/ul&gt;" style="shape=note;whiteSpace=wrap;html=1;backgroundOutline=1;darkOpacity=0.05;size=16;fillColor=#d5e8d4;strokeColor=#82b366;align=left;" vertex="1" parent="1">
          <mxGeometry x="225" y="120" width="165" height="130" as="geometry" />
        </mxCell>
        <mxCell id="ACUANvK1jdX-mK0Kz7Ea-21" value="" style="edgeStyle=orthogonalEdgeStyle;rounded=0;orthogonalLoop=1;jettySize=auto;html=1;strokeColor=#FF0000;" edge="1" parent="1" source="ACUANvK1jdX-mK0Kz7Ea-11" target="ACUANvK1jdX-mK0Kz7Ea-3">
          <mxGeometry relative="1" as="geometry" />
        </mxCell>
        <mxCell id="ACUANvK1jdX-mK0Kz7Ea-11" value="&lt;div style=&quot;font-size: 14px;&quot;&gt;&lt;font style=&quot;font-size: 14px;&quot;&gt;&lt;br&gt;&lt;/font&gt;&lt;/div&gt;&lt;ul style=&quot;font-size: 14px;&quot;&gt;&lt;li style=&quot;&quot;&gt;&lt;font style=&quot;font-size: 14px;&quot;&gt;Energy MSR reset&lt;/font&gt;&lt;/li&gt;&lt;li style=&quot;&quot;&gt;&lt;font style=&quot;font-size: 14px;&quot;&gt;Negative Samples Removal&lt;/font&gt;&lt;/li&gt;&lt;/ul&gt;" style="shape=note;whiteSpace=wrap;html=1;backgroundOutline=1;darkOpacity=0.05;size=16;direction=south;fillColor=#d5e8d4;strokeColor=#82b366;align=left;" vertex="1" parent="1">
          <mxGeometry x="407" y="430" width="163" height="140" as="geometry" />
        </mxCell>
        <mxCell id="ACUANvK1jdX-mK0Kz7Ea-12" value="" style="endArrow=classic;html=1;rounded=0;" edge="1" parent="1">
          <mxGeometry width="50" height="50" relative="1" as="geometry">
            <mxPoint x="360" y="348.25" as="sourcePoint" />
            <mxPoint x="420" y="348" as="targetPoint" />
          </mxGeometry>
        </mxCell>
        <mxCell id="ACUANvK1jdX-mK0Kz7Ea-15" value="" style="endArrow=classic;html=1;rounded=0;" edge="1" parent="1">
          <mxGeometry width="50" height="50" relative="1" as="geometry">
            <mxPoint x="537" y="347" as="sourcePoint" />
            <mxPoint x="598" y="347" as="targetPoint" />
          </mxGeometry>
        </mxCell>
        <mxCell id="ACUANvK1jdX-mK0Kz7Ea-23" value="" style="edgeStyle=orthogonalEdgeStyle;rounded=0;orthogonalLoop=1;jettySize=auto;html=1;strokeColor=#FF0000;" edge="1" parent="1" source="ACUANvK1jdX-mK0Kz7Ea-22" target="ACUANvK1jdX-mK0Kz7Ea-4">
          <mxGeometry relative="1" as="geometry" />
        </mxCell>
        <mxCell id="ACUANvK1jdX-mK0Kz7Ea-22" value="&lt;div style=&quot;font-size: 14px;&quot;&gt;&lt;font style=&quot;font-size: 14px;&quot;&gt;&lt;br&gt;&lt;/font&gt;&lt;/div&gt;&lt;ul style=&quot;font-size: 14px;&quot;&gt;&lt;li style=&quot;&quot;&gt;&lt;font style=&quot;font-size: 14px;&quot;&gt;Energy Consumed&amp;nbsp;&lt;/font&gt;&lt;/li&gt;&lt;li style=&quot;&quot;&gt;&lt;font style=&quot;font-size: 14px;&quot;&gt;Execution Time&lt;/font&gt;&lt;/li&gt;&lt;li style=&quot;&quot;&gt;&lt;font style=&quot;font-size: 14px;&quot;&gt;Cache-misses&lt;/font&gt;&lt;/li&gt;&lt;/ul&gt;" style="shape=note;whiteSpace=wrap;html=1;backgroundOutline=1;darkOpacity=0.05;size=16;fillColor=#d5e8d4;strokeColor=#82b366;align=left;" vertex="1" parent="1">
          <mxGeometry x="582" y="120" width="168" height="130" as="geometry" />
        </mxCell>
      </root>
    </mxGraphModel>
  </diagram>
</mxfile>
